<svg width="592" height="508" viewBox="0 0 592 508" fill="none" xmlns="http://www.w3.org/2000/svg">
<path d="M507.401 449.6C499.924 457.302 491.806 464.354 483.134 470.679H123.513C123.513 470.679 84.8378 452.684 44.3373 387.004C30.5972 364.743 24.8646 337.185 25.7387 309.757C27.371 256.377 54.1829 203.383 95.6859 190.993C158.5 172.253 159.952 105.172 241.017 85.005C322.083 64.8383 369.987 111.136 369.987 111.136C449.188 179.026 536.809 211.725 556.718 308.998C557.065 310.708 557.387 312.417 557.657 314.14C567.939 375.912 532.888 423.816 507.401 449.6Z" fill="#FFCAE8"/>
<path d="M507.401 454.227C493.928 462.301 479.865 469.347 465.332 475.306H123.513C123.513 475.306 84.8378 457.311 44.3373 391.631C30.5972 369.37 24.8646 341.812 25.7387 314.384C62.666 344.229 143.307 389.395 292.572 388.611C437.595 387.853 518.788 347.056 557.657 318.728C567.939 380.488 532.888 428.443 507.401 454.227Z" fill="#FF85C5"/>
<path d="M127.408 450.307C127.408 450.307 62.1909 451.323 49.6462 460.166C37.1014 469.009 38.6052 482.338 147.922 491.99C257.239 501.643 221.815 508.057 305.168 507.414C388.522 506.772 466.065 487.337 513.725 479.137C561.385 470.937 550.305 451.284 478.713 446.67C407.12 442.055 191.379 458.559 127.408 450.307Z" fill="#FF94CC"/>
<path d="M56.1495 423.135C56.1495 423.135 49.7229 400.886 36.1628 397.994C22.6026 395.102 26.8827 391.568 24.2735 384.126C21.6643 376.684 18.104 374.781 13.2712 373.843C8.43834 372.905 9.41518 360.296 2.62868 358.689C-4.15783 357.082 4.56952 374.807 2.62868 384.794C0.68784 394.781 8.0913 393.149 11.9473 404.755C15.8032 416.362 11.9473 423.778 16.7801 432.801C21.6129 441.824 28.0909 433.251 30.3145 445.654C32.5381 458.057 49.016 465.319 61.9078 463.649C74.7996 461.978 76.3419 459.793 76.3419 459.793L56.1495 423.135Z" fill="#DC016A"/>
<path d="M58.2175 454.73C58.2175 454.73 34.0277 435.039 34.5675 419.409C35.1074 403.78 37.1382 400.669 30.7116 391.261C24.2849 381.852 30.2745 369.706 34.2976 359.822C38.3207 349.937 24.889 342.213 33.3593 332.431C41.8296 322.65 61.7907 343.511 64.1428 362.803C66.4949 382.096 70.8265 387.662 82.2659 396.145C93.7052 404.628 95.8003 418.934 94.8749 427.095C93.9494 435.257 107.612 438.792 103.962 459.935C103.988 459.935 91.6359 466.748 58.2175 454.73Z" fill="#FF94CC"/>
<path d="M75.5189 456.772C75.5189 456.772 68.5396 439.137 75.5189 427.711C82.4982 416.284 81.6627 416.143 81.9455 407.081C82.2283 398.02 87.1511 393.907 91.6369 392.622C96.1226 391.336 99.0532 387.814 101.302 381.683C103.552 375.552 110.647 374.19 114.837 379.858C119.027 385.527 112.588 401.709 114.837 409.061C116.937 416.327 116.367 424.106 113.23 430.988C110.325 437.107 115.801 441.952 113.23 450.975C110.66 459.998 106.945 465.846 80.2746 465.499L75.5189 456.772Z" fill="#DC016A"/>
<path d="M114.016 481.065C114.016 481.065 116.175 474.728 126.869 472.171C137.563 469.613 147.048 479.073 147.987 483.391C147.922 483.391 123.771 488.366 114.016 481.065Z" fill="#D6A499"/>
<path d="M485.81 449.909C485.81 449.909 484.678 412.699 515.141 382.815C545.603 352.931 579.163 357.918 579.163 357.918C579.163 357.918 580.525 393.265 555.795 420.899C531.066 448.534 504.742 456.567 504.742 456.567L485.81 449.909Z" fill="#FF94CC"/>
<path d="M504.739 456.541C512.027 458.919 520.78 457.685 528.274 456.116C540.6 453.546 554.044 444.844 568.196 431.824C591.087 410.783 592 387.48 592 387.48C592 387.48 555.073 388.367 531.217 409.858C507.361 431.348 495.434 453.276 495.434 453.276L504.739 456.541Z" fill="#DC016A"/>
<path d="M218.883 452.055C218.883 452.055 222.187 436.927 240.181 432.159C258.176 427.39 261.852 439.498 277.635 434.357C293.419 429.215 291.967 422.107 311.054 423.637C330.141 425.166 332.724 436.927 345.218 434.357C357.711 431.786 367.608 440.359 367.981 447.454C367.981 447.454 283.882 453.598 218.883 452.055Z" fill="#DC016A"/>
<path d="M338.639 327.07C338.546 323.387 338.059 319.725 337.187 316.145C335.03 307.236 330.49 299.082 324.053 292.557C317.615 286.031 309.524 281.38 300.645 279.102C295.984 277.9 291.177 277.359 286.365 277.496C285.543 277.496 284.746 277.56 283.936 277.624C275.741 278.283 267.828 280.924 260.88 285.32C253.932 289.715 248.156 295.734 244.05 302.857C239.944 309.98 237.631 317.994 237.31 326.21C236.988 334.425 238.669 342.596 242.206 350.018C245.743 357.44 251.031 363.891 257.614 368.816C264.198 373.741 271.88 376.992 279.999 378.289C288.118 379.586 296.43 378.89 304.221 376.262C312.011 373.634 319.046 369.151 324.719 363.201C329.323 358.405 332.925 352.74 335.315 346.536C337.705 340.333 338.835 333.715 338.639 327.07ZM408.908 102.743C408.474 84.4415 402.663 66.6726 392.199 51.6514C383.836 39.706 373.169 29.5542 360.824 21.7933C338.292 7.3206 309.887 -0.532725 280.337 0.251322C273.734 0.397095 267.145 0.942212 260.607 1.88368C247.585 3.71404 234.928 7.56036 223.089 13.2845C207.344 21.0041 193.71 32.4326 183.36 46.5872C177.556 54.4515 175.114 64.2992 176.571 73.9639C178.028 83.6286 183.265 92.3186 191.129 98.1223C198.994 103.926 208.841 106.368 218.506 104.911C228.171 103.454 236.861 98.2168 242.664 90.3525C248.869 81.6751 257.702 75.2259 267.857 71.9595C272.364 70.5822 277.039 69.8297 281.751 69.723C301.686 69.1832 318.023 83.8616 318.588 105.082C319.385 135.107 296.442 138.282 271.25 154.169C270.055 154.927 268.859 155.698 267.664 156.508C248.076 169.875 247.613 185.839 248.14 205.35L248.435 216.918C248.69 226.469 252.662 235.543 259.506 242.21C266.35 248.876 275.526 252.608 285.08 252.612H286.07C293.146 252.434 300.019 250.213 305.862 246.218C311.705 242.222 316.267 236.622 319 230.093C320.36 226.834 321.227 223.39 321.57 219.874C322.264 212.548 323.845 205.415 326.969 200.248C327.948 198.416 329.296 196.808 330.929 195.524C332.562 194.241 334.443 193.311 336.454 192.793C355.644 183.988 372.675 173.513 385.399 160.531C400.489 145.146 409.538 126.277 408.908 102.692V102.743Z" fill="#DC016A"/>
<path d="M226.326 472.967C226.326 476.925 209.706 480.139 189.193 480.139C168.679 480.139 152.047 476.925 152.047 472.967C152.047 469.008 168.679 465.794 189.193 465.794C209.706 465.794 226.326 469.008 226.326 472.967Z" fill="#C4928A"/>
<path d="M203.589 304.025C202.998 303.871 201.88 305.31 201.88 305.31L199.605 302.984C199.943 301.839 200.192 300.67 200.35 299.488C200.53 298.202 200.761 295.426 200.916 293.511C204.476 289.449 214.99 276.532 213.139 267.432C210.903 256.494 202.728 235.453 202.728 235.453C200.761 235.453 188.782 242.214 188.782 242.214L199.746 269.205L193.846 286.904L193.756 286.84L189.155 297.855C188.704 298.939 188.566 300.127 188.754 301.285C188.943 302.443 189.451 303.526 190.222 304.41C190.958 305.358 191.823 306.197 192.792 306.904C194.206 307.649 200.903 309.809 202.06 309.14C203.216 308.472 204.54 305.349 204.54 305.349C204.54 305.349 204.193 304.166 203.589 304.025Z" fill="#FFA08B"/>
<path d="M160.709 447.891L163.422 465.795L174.398 461.644L173.588 447.891H160.709Z" fill="#FFA08B"/>
<path d="M195.814 445.808L197.832 459.214L212.022 463.533L209.799 445.808H195.814Z" fill="#FFA08B"/>
<path d="M213.306 452.401C204.142 457.748 193.23 454.188 193.23 454.188L177.626 327.391L175.852 328.265L176.649 376.94L176.893 390.719L177.934 454.663C172.025 457.021 165.437 457.021 159.528 454.663L148.269 330.797C145.416 315.754 145.281 300.322 147.87 285.232C155.48 285.643 193.911 285.592 193.911 285.592C193.911 285.592 201.391 336.529 203.679 352.069C204.27 356.092 204.965 362.043 205.71 369.061C206.43 375.809 207.201 383.572 207.946 391.58C210.684 420.397 213.306 452.401 213.306 452.401Z" fill="#006A66"/>
<path d="M188.833 209.695C196.889 216.994 202.575 226.538 205.157 237.098L193.704 240.067L188.833 209.695Z" fill="#FF6A6E"/>
<path d="M173.732 204.965C174.105 205.287 183.385 207.266 187.717 209.001C192.048 210.736 196.495 226.443 196.868 235.839C197.241 245.234 194.04 286.545 194.04 286.545C189.876 292.187 148.09 285.259 148.09 285.259C148.09 285.259 136.869 244.129 137.615 222.278C137.677 218.357 138.516 214.486 140.082 210.891L159.208 204.541L173.732 204.965Z" fill="#FFD179"/>
<path d="M157.407 208.371C157.407 208.371 162.844 212.818 168.975 212.818C175.106 212.818 176.07 208.204 176.07 208.204C175.346 206.922 174.789 205.552 174.412 204.129C173.756 201.58 173.424 198.959 173.422 196.327L160.068 189.901C160.776 192.894 160.932 195.99 160.531 199.039C160.13 202.329 159.067 205.503 157.407 208.371Z" fill="#FFA08B"/>
<path d="M160.505 199.027C164.292 202.473 169.268 204.316 174.386 204.168C173.73 201.619 173.398 198.998 173.396 196.366L160.042 189.94C160.743 192.916 160.9 195.995 160.505 199.027Z" fill="#B56F68"/>
<path d="M150.595 177.279C151.421 176.975 152.321 176.935 153.171 177.165C154.021 177.395 154.778 177.885 155.338 178.565C154.804 175.204 154.61 171.797 154.759 168.398C155.26 157.177 176.211 156.83 181.16 159.156C186.108 161.483 186.083 174.914 186.018 177.061C186.018 177.061 186.764 189.516 181.16 196.109C175.556 202.703 164.99 200.891 161.199 194.631C160.279 193.1 159.451 191.517 158.718 189.888C157.494 190.022 156.255 189.887 155.087 189.495C153.92 189.102 152.852 188.46 151.957 187.613C148.5 184.567 147.009 178.757 150.595 177.279Z" fill="#FFA08B"/>
<path d="M152.831 159.323C152.958 157.965 153.451 156.668 154.256 155.568C155.062 154.468 156.151 153.607 157.407 153.076C161.648 151.508 163.538 153.295 165.324 152.189C167.111 151.084 169.784 147.382 175.029 148.333C180.273 149.285 181.622 153.475 183.73 152.189C185.838 150.904 189.874 151.739 191.879 155.981C193.884 160.223 189.758 161.894 190.761 163.693C191.764 165.492 193.216 166.585 191.879 169.708C190.542 172.832 188.64 170.994 188.64 173.166C188.64 175.338 186.07 177.125 186.07 177.125C186.07 177.125 185.684 168.487 184.784 166.701C183.723 167.735 182.429 168.498 181.01 168.925C179.592 169.353 178.091 169.432 176.635 169.156C173.319 168.603 172.779 170.942 170.98 172.613C169.18 174.284 162.651 174.027 162.651 174.027C162.651 174.027 162.715 181.867 160.08 183.885C157.445 185.903 158.564 180.248 155.376 178.628C152.188 177.009 150.08 178.191 149.746 181.983C149.412 185.775 154.271 190.351 158.744 189.952C159.563 191.118 160.213 192.395 160.672 193.744C160.88 195.507 160.832 197.29 160.53 199.039C160.53 199.039 145.106 189.014 142.934 181.045C140.762 173.076 143.872 168.886 143.872 168.886C143.763 166.743 144.31 164.617 145.44 162.793C147.317 159.708 152.831 159.323 152.831 159.323Z" fill="#00445B"/>
<path d="M184.015 203.332C184.218 202.686 184.369 202.024 184.464 201.353C184.257 200.442 183.896 199.573 183.398 198.782C183.594 198.219 183.707 197.63 183.732 197.034C183.732 196.019 184.464 192.703 183.179 192.369C181.894 192.034 180.673 198.448 179.002 199.682C177.331 200.916 175.03 202.356 175.146 202.021C175.288 200.929 175.288 199.823 175.146 198.731C175.043 198.063 174.04 196.057 173.359 197.034C172.678 198.011 171.251 203.692 171.688 205.26C172.125 206.828 173.141 210.826 173.141 210.826L172.19 214.463L162.717 254.63L154.452 240.491L135.494 246.918C135.494 246.918 149.992 272.624 158.244 275.696C160.435 276.579 162.771 277.045 165.133 277.071C168.385 277.393 174.503 276.133 178.295 267.868C182.087 259.604 180.634 215.093 180.634 215.093L181.02 213.654C181.02 213.654 183.205 209.862 183.59 209.425C183.976 208.988 183.693 207.073 183.693 207.073C184.068 206.646 184.321 206.127 184.426 205.569C184.436 204.804 184.296 204.044 184.015 203.332Z" fill="#FFA08B"/>
<path d="M162.653 461.644C162.653 461.644 162.576 470.577 162.653 472.055C162.731 473.534 164.067 476.451 167.795 478.482C171.522 480.513 176.342 480.269 178.951 479.973C181.561 479.677 183.566 478.855 184.298 477.595C185.031 476.336 184.298 474.318 182.91 471.94C181.522 469.562 178.424 468.816 177.01 466.143C175.597 463.47 175.005 461.156 174.26 460.565C173.514 459.973 170.018 460.141 168.682 460.835C167.345 461.529 165.854 463.611 165.186 463.611C164.517 463.611 164.132 461.721 162.653 461.644Z" fill="#724F2B"/>
<path d="M197.035 458.443C197.176 461.374 197.562 467.248 198.384 469.613C198.384 469.613 198.384 471.117 202.806 471.348C207.227 471.579 211.996 471.348 214.823 471.914C217.651 472.479 225.106 472.132 226.391 471.322C226.751 471.031 227.041 470.662 227.241 470.244C227.44 469.826 227.543 469.369 227.543 468.906C227.543 468.443 227.44 467.986 227.241 467.568C227.041 467.149 226.751 466.781 226.391 466.49C224.54 465.14 213.384 459.562 211.225 457.711C209.515 457.823 207.891 458.501 206.61 459.639C205.094 461.053 201.122 458.572 198.693 457.351C198.512 457.268 198.313 457.232 198.115 457.247C197.917 457.262 197.726 457.328 197.56 457.437C197.394 457.546 197.259 457.696 197.167 457.872C197.075 458.048 197.029 458.245 197.035 458.443Z" fill="#724F2B"/>
<path d="M147.2 289.346C156.188 291.955 165.477 293.381 174.834 293.587C189.32 293.716 194.68 290.862 194.68 290.862" stroke="#004740" stroke-linecap="round" stroke-linejoin="round"/>
<path d="M175.852 328.266C175.852 328.266 177.857 317.611 185.055 314.796" stroke="#004740" stroke-linecap="round" stroke-linejoin="round"/>
<path d="M183.471 293.265C183.471 293.265 185.052 304.281 182.777 309.28C180.502 314.28 178.921 313.214 178.921 313.214V298.06" stroke="#004740" stroke-linecap="round" stroke-linejoin="round"/>
<path d="M146.251 299.334C146.251 299.334 155.03 298.833 156.611 291.623" stroke="#004740" stroke-linecap="round" stroke-linejoin="round"/>
<path d="M159.038 449.24C165.023 451.408 171.567 451.48 177.598 449.445" stroke="#004740" stroke-linecap="round" stroke-linejoin="round"/>
<path d="M192.715 450.076C192.715 450.076 204.283 452.299 213.28 447.891" stroke="#004740" stroke-linecap="round" stroke-linejoin="round"/>
<path d="M176.892 390.719C176.126 391.906 175.081 392.887 173.849 393.577C172.617 394.267 171.234 394.645 169.822 394.677C164.784 394.677 160.709 389.883 160.709 383.971C160.709 378.058 164.784 373.277 169.822 373.277C171.169 373.301 172.491 373.645 173.678 374.283C174.865 374.92 175.883 375.831 176.647 376.94L176.892 390.719Z" fill="#025650"/>
<path d="M207.945 391.581C207.238 391.8 206.501 391.909 205.76 391.902C200.747 391.902 196.673 386.761 196.673 380.489C196.673 374.216 200.722 369.101 205.67 369.062C206.428 375.81 207.2 383.625 207.945 391.581Z" fill="#025650"/>
<path d="M149.168 298.793C149.381 309.343 150.136 319.876 151.43 330.348L156.571 391.928L160.762 449.832" stroke="#004740" stroke-linecap="round" stroke-linejoin="round"/>
<path d="M178.279 321.531C178.279 321.531 188.664 382.236 188.921 387.506C189.178 392.776 195.811 450.898 195.811 450.898" stroke="#004740" stroke-linecap="round" stroke-linejoin="round"/>
<path d="M162.767 254.603C162.767 254.603 161.366 259.654 160.042 265.978" stroke="#B56F68" stroke-linecap="round" stroke-linejoin="round"/>
<path d="M199.798 269.231C199.798 269.231 205.055 266.66 209.116 267.046" stroke="#B56F68" stroke-linecap="round" stroke-linejoin="round"/>
<path d="M140.079 210.8C140.079 210.8 130.632 214.103 129.964 227.046C129.6 234.993 130.733 242.937 133.306 250.465L157.406 241.545C157.406 241.545 148.858 214.861 140.079 210.8Z" fill="#FF6A6E"/>
<path d="M183.397 198.757C182.906 199.698 182.282 200.563 181.546 201.327" stroke="#B56F68" stroke-linecap="round" stroke-linejoin="round"/>
<path d="M184.014 203.332C184.014 203.332 183.14 205.016 182.471 205.337" stroke="#B56F68" stroke-linecap="round" stroke-linejoin="round"/>
<path d="M183.731 207.073L182.471 208.371" stroke="#B56F68" stroke-linecap="round" stroke-linejoin="round"/>
<path d="M198.601 467.98C198.601 467.98 202.033 468.315 208.215 468.7C214.398 469.086 222.714 469.818 226.325 468.7" stroke="#B56F68" stroke-linecap="round" stroke-linejoin="round"/>
<path d="M163.282 470.68C164.237 472.004 165.457 473.115 166.864 473.943C168.271 474.77 169.835 475.296 171.457 475.487C175.311 475.973 179.218 475.825 183.025 475.05" stroke="#B56F68" stroke-linecap="round" stroke-linejoin="round"/>
<path d="M183.422 192.562C183.422 192.562 183.422 192.138 182.664 192.562C181.906 192.986 180.363 198.166 179.502 199.117C178.142 200.311 176.699 201.406 175.183 202.395C175.63 201.126 175.63 199.743 175.183 198.475C174.386 196.624 173.461 197.061 173.461 197.061C172.491 199.149 171.911 201.397 171.751 203.693C171.954 206.217 172.428 208.713 173.165 211.135" stroke="#B56F68" stroke-linecap="round" stroke-linejoin="round"/>
<path d="M152.701 180.646C152.701 180.646 156.39 183.937 156.852 186.97" stroke="#B56F68" stroke-linecap="round" stroke-linejoin="round"/>
<path d="M153.755 186.315C153.755 186.315 154.308 184.271 155.451 183.744" stroke="#B56F68" stroke-linecap="round" stroke-linejoin="round"/>
<path d="M134.257 246.584L154.539 239.322" stroke="#FF8D95" stroke-miterlimit="10"/>
<path d="M153.755 159.721H157.405" stroke="#005C75" stroke-linecap="round" stroke-linejoin="round"/>
<path d="M145.453 169.297L147.214 169.734" stroke="#005C75" stroke-linecap="round" stroke-linejoin="round"/>
<path d="M186.057 164.645C185.776 165.701 185.214 166.661 184.431 167.424C183.648 168.186 182.673 168.723 181.61 168.976C177.754 170.069 175.929 168.346 174.502 169.272C173.075 170.197 170.209 175.814 162.626 174.04C162.626 174.04 162.279 183.924 159.477 184.233C156.675 184.541 158.088 179.58 154.785 178.372" stroke="#005C75" stroke-linecap="round" stroke-linejoin="round"/>
<path d="M180.092 154.297C180.092 154.297 181.892 154.644 182.354 153.513" stroke="#005C75" stroke-linecap="round" stroke-linejoin="round"/>
<path d="M166.532 153.552C167.19 153.927 167.953 154.076 168.704 153.976" stroke="#005C75" stroke-linecap="round" stroke-linejoin="round"/>
<path d="M160.736 170.236L161.79 170.904" stroke="#005C75" stroke-linecap="round" stroke-linejoin="round"/>
<path d="M169.694 163.591C170.288 163.179 170.966 162.902 171.678 162.78C172.391 162.658 173.122 162.694 173.82 162.884" stroke="#005C75" stroke-linecap="round" stroke-linejoin="round"/>
</svg>
