<svg width="545" height="467" viewBox="0 0 545 467" fill="none" xmlns="http://www.w3.org/2000/svg">
<path d="M466.721 413.373C459.845 420.458 452.377 426.944 444.4 432.762H113.611C113.611 432.762 78.0362 416.21 40.7826 355.796C28.1441 335.319 22.8712 309.971 23.6751 284.741C25.1766 235.641 49.8389 186.896 88.0146 175.499C145.792 158.261 147.128 96.5582 221.695 78.0083C296.261 59.4583 340.324 102.044 340.324 102.044C413.176 164.492 493.772 194.569 512.085 284.044C512.405 285.616 512.7 287.188 512.948 288.773C522.407 345.593 490.166 389.656 466.721 413.373Z" fill="#FFCAE8"/>
<path d="M466.721 417.629C454.329 425.056 441.393 431.537 428.026 437.018H113.611C113.611 437.018 78.0362 420.466 40.7826 360.052C28.1441 339.575 22.8712 314.227 23.6751 288.997C57.6419 316.45 131.818 357.995 269.116 357.274C402.512 356.576 477.196 319.051 512.948 292.993C522.407 349.802 490.166 393.912 466.721 417.629Z" fill="#FF85C5"/>
<path d="M117.194 414.023C117.194 414.023 57.2056 414.957 45.6666 423.091C34.1276 431.225 35.5108 443.486 136.063 452.365C236.616 461.243 204.033 467.143 280.703 466.552C357.374 465.961 428.701 448.085 472.539 440.542C516.378 432.999 506.187 414.922 440.334 410.677C374.481 406.433 176.036 421.614 117.194 414.023Z" fill="#FF94CC"/>
<path d="M47.3791 286.243C44.2619 285.912 41.2583 284.887 38.5885 283.244C35.9188 281.601 33.6505 279.382 31.95 276.748C30.2495 274.115 29.1599 271.134 28.7611 268.025C28.3622 264.915 28.6642 261.756 29.645 258.779C34.6342 244 46.457 226.349 74.1577 216.512C109.874 203.862 150.06 215.886 161.965 249.474C170.241 272.812 157.91 293.218 138.509 311.13C133.567 314.121 133.626 321.38 135.199 328.45C136.263 333.408 135.481 338.583 133 343.005C130.518 347.426 126.507 350.789 121.721 352.462C119.129 353.378 116.382 353.774 113.637 353.627C110.892 353.48 108.203 352.793 105.723 351.606C103.244 350.419 101.023 348.755 99.1872 346.709C97.3514 344.663 95.937 342.275 95.0249 339.682L92.814 333.439C89.1017 322.953 86.5362 314.216 94.8121 303.516C106.044 289.069 119.368 283.547 113.374 266.641C112.545 264.046 111.197 261.647 109.412 259.589C107.627 257.532 105.443 255.858 102.991 254.671C100.54 253.483 97.8728 252.806 95.1518 252.681C92.4308 252.556 89.7128 252.986 87.1628 253.943C83.0184 255.361 79.2673 257.737 76.2145 260.879C73.1617 264.02 70.8934 267.837 69.5941 272.02C68.0642 276.564 65.0271 280.448 60.9866 283.028C56.946 285.609 52.1448 286.73 47.3791 286.207V286.243ZM163.361 383.544C165.235 388.938 165.472 394.765 164.042 400.293C162.611 405.821 159.576 410.802 155.32 414.608C151.064 418.415 145.776 420.877 140.123 421.684C134.471 422.491 128.706 421.607 123.554 419.144C118.403 416.681 114.095 412.748 111.175 407.841C108.254 402.935 106.851 397.274 107.141 391.571C107.432 385.869 109.404 380.379 112.808 375.795C116.213 371.211 120.897 367.737 126.272 365.81C129.87 364.509 133.691 363.936 137.512 364.125C141.333 364.314 145.078 365.262 148.529 366.912C151.981 368.563 155.07 370.883 157.616 373.738C160.162 376.594 162.115 379.927 163.361 383.544Z" fill="white"/>
<path d="M385.121 259.736C382.929 257.794 381.199 255.387 380.056 252.691C378.913 249.994 378.387 247.077 378.516 244.151C378.645 241.225 379.427 238.366 380.802 235.781C382.178 233.195 384.114 230.95 386.469 229.209C398.185 220.567 416.735 213.473 443.218 220.933C477.327 230.569 501.505 261.462 492.448 293.525C486.159 315.811 465.693 324.773 441.232 327.929C435.841 327.551 431.975 333.12 429.409 339.362C427.541 343.72 424.147 347.248 419.863 349.283C415.58 351.318 410.701 351.721 406.142 350.416C403.671 349.719 401.361 348.542 399.344 346.952C397.328 345.362 395.644 343.39 394.391 341.149C393.137 338.908 392.337 336.442 392.036 333.892C391.736 331.341 391.941 328.757 392.641 326.286L394.319 320.316C397.145 310.313 399.912 302.25 412.054 298.55C428.44 293.596 441.61 296.575 446.15 280.426C446.914 277.997 447.177 275.438 446.924 272.904C446.67 270.371 445.905 267.915 444.675 265.686C443.445 263.457 441.775 261.5 439.767 259.935C437.759 258.369 435.454 257.228 432.992 256.579C429.063 255.421 424.917 255.208 420.89 255.955C416.863 256.703 413.07 258.391 409.819 260.882C406.196 263.52 401.78 264.841 397.303 264.626C392.827 264.411 388.558 262.673 385.204 259.7L385.121 259.736ZM421.11 396.667C419.637 401.802 416.677 406.386 412.604 409.842C408.53 413.298 403.525 415.471 398.218 416.087C392.912 416.703 387.542 415.735 382.785 413.305C378.027 410.874 374.096 407.091 371.485 402.43C368.875 397.769 367.702 392.44 368.115 387.114C368.528 381.788 370.508 376.703 373.805 372.5C377.103 368.297 381.571 365.165 386.645 363.496C391.72 361.828 397.175 361.699 402.323 363.126C405.773 364.072 409 365.694 411.818 367.899C414.635 370.103 416.986 372.845 418.734 375.966C420.482 379.087 421.592 382.524 422 386.078C422.408 389.632 422.105 393.231 421.11 396.667Z" fill="white"/>
<path d="M51.6479 389.03C51.6479 389.03 45.7366 368.565 33.2635 365.905C20.7905 363.245 24.7275 359.993 22.3275 353.148C19.9275 346.303 16.6525 344.553 12.2072 343.69C7.76182 342.827 8.66035 331.229 2.41793 329.751C-3.82449 328.273 4.20317 344.576 2.41793 353.763C0.632695 362.949 7.44261 361.448 10.9894 372.124C14.5363 382.799 10.9894 389.621 15.4348 397.921C19.8802 406.22 25.8388 398.335 27.8842 409.744C29.9295 421.153 45.0863 427.832 56.9445 426.295C68.8028 424.758 70.2215 422.749 70.2215 422.749L51.6479 389.03Z" fill="#DC016A"/>
<path d="M53.5508 418.092C53.5508 418.092 31.3003 399.979 31.7969 385.603C32.2935 371.226 34.1615 368.365 28.2501 359.711C22.3387 351.056 27.8481 339.884 31.5486 330.792C35.2491 321.701 22.8944 314.595 30.6856 305.598C38.4768 296.601 56.8375 315.789 59.0011 333.535C61.1647 351.281 65.1489 356.4 75.6712 364.203C86.1935 372.006 88.1206 385.165 87.2693 392.673C86.4181 400.18 98.9857 403.431 95.628 422.88C95.6517 422.88 84.29 429.146 53.5508 418.092Z" fill="#FF94CC"/>
<path d="M69.4641 419.97C69.4641 419.97 63.0443 403.749 69.4641 393.239C75.8838 382.728 75.1153 382.598 75.3755 374.263C75.6356 365.928 80.1637 362.145 84.2898 360.962C88.416 359.78 91.1115 356.541 93.1805 350.901C95.2495 345.262 101.776 344.009 105.63 349.222C109.484 354.436 103.561 369.321 105.63 376.084C107.562 382.768 107.037 389.922 104.152 396.253C101.48 401.881 106.517 406.338 104.152 414.638C101.788 422.937 98.3707 428.317 73.8385 427.998L69.4641 419.97Z" fill="#DC016A"/>
<path d="M104.875 442.315C104.875 442.315 106.861 436.487 116.697 434.134C126.534 431.781 135.259 440.483 136.122 444.455C136.063 444.455 113.848 449.031 104.875 442.315Z" fill="#D6A499"/>
<path d="M446.861 413.657C446.861 413.657 445.821 379.43 473.841 351.942C501.861 324.454 532.73 329.041 532.73 329.041C532.73 329.041 533.983 361.554 511.236 386.973C488.489 412.392 464.276 419.781 464.276 419.781L446.861 413.657Z" fill="#FF94CC"/>
<path d="M464.274 419.757C470.978 421.944 479.029 420.809 485.922 419.367C497.26 417.002 509.626 408.998 522.643 397.022C543.699 377.668 544.539 356.233 544.539 356.233C544.539 356.233 510.572 357.049 488.629 376.817C466.686 396.585 455.714 416.754 455.714 416.754L464.274 419.757Z" fill="#DC016A"/>
<path d="M201.335 415.631C201.335 415.631 204.374 401.716 220.926 397.33C237.478 392.943 240.859 404.08 255.377 399.351C269.896 394.622 268.56 388.084 286.117 389.491C303.673 390.898 306.05 401.716 317.541 399.351C329.033 396.987 338.137 404.873 338.48 411.399C338.48 411.399 261.123 417.05 201.335 415.631Z" fill="#DC016A"/>
<path d="M408.164 120.37C415.053 120.37 420.637 114.786 420.637 107.897C420.637 101.008 415.053 95.4238 408.164 95.4238C401.276 95.4238 395.691 101.008 395.691 107.897C395.691 114.786 401.276 120.37 408.164 120.37Z" fill="#DC016A"/>
<path d="M486.051 177.851C489.858 177.851 492.944 174.765 492.944 170.959C492.944 167.152 489.858 164.066 486.051 164.066C482.244 164.066 479.158 167.152 479.158 170.959C479.158 174.765 482.244 177.851 486.051 177.851Z" fill="#DC016A"/>
<path d="M140.46 120.37C147.348 120.37 152.933 114.786 152.933 107.897C152.933 101.008 147.348 95.4238 140.46 95.4238C133.571 95.4238 127.987 101.008 127.987 107.897C127.987 114.786 133.571 120.37 140.46 120.37Z" fill="#DC016A"/>
<path d="M70.2692 168.891C70.2692 170.544 69.7789 172.16 68.8605 173.535C67.942 174.909 66.6365 175.98 65.1092 176.613C63.5818 177.246 61.9012 177.411 60.2798 177.089C58.6583 176.766 57.169 175.97 56 174.801C54.831 173.632 54.0349 172.143 53.7124 170.521C53.3899 168.9 53.5554 167.219 54.188 165.692C54.8207 164.165 55.892 162.859 57.2666 161.941C58.6412 161.022 60.2573 160.532 61.9105 160.532C64.1264 160.535 66.2506 161.417 67.8175 162.984C69.3844 164.551 70.266 166.675 70.2692 168.891Z" fill="#DC016A"/>
<path d="M273.371 437.173C301.07 437.173 323.524 433.187 323.524 428.27C323.524 423.353 301.07 419.368 273.371 419.368C245.673 419.368 223.219 423.353 223.219 428.27C223.219 433.187 245.673 437.173 273.371 437.173Z" fill="#C4928A"/>
<path d="M311.49 300.667C311.404 297.279 310.956 293.91 310.154 290.617C308.17 282.423 303.993 274.922 298.072 268.92C292.151 262.918 284.708 258.64 276.541 256.544C272.254 255.438 267.832 254.941 263.406 255.066C262.65 255.066 261.917 255.126 261.172 255.185C253.634 255.791 246.356 258.22 239.964 262.263C233.573 266.306 228.261 271.842 224.484 278.394C220.707 284.947 218.579 292.318 218.284 299.875C217.988 307.432 219.534 314.948 222.787 321.775C226.041 328.602 230.905 334.536 236.961 339.066C243.016 343.596 250.082 346.586 257.55 347.779C265.018 348.972 272.664 348.332 279.83 345.915C286.996 343.497 293.467 339.374 298.686 333.901C302.92 329.489 306.233 324.278 308.431 318.572C310.63 312.866 311.669 306.779 311.49 300.667ZM376.125 94.324C375.726 77.4898 370.38 61.1454 360.755 47.3285C353.063 36.3408 343.251 27.0029 331.896 19.8642C311.17 6.55179 285.042 -0.671915 257.862 0.0492738C251.787 0.18336 245.727 0.684773 239.714 1.55077C227.736 3.23438 216.093 6.77233 205.203 12.0376C190.72 19.1383 178.18 29.6506 168.659 42.6704C163.32 49.9042 161.074 58.9624 162.415 67.8522C163.755 76.7421 168.572 84.7354 175.806 90.0737C183.039 95.4121 192.098 97.6582 200.987 96.3179C209.877 94.9776 217.871 90.1607 223.209 82.9269C228.916 74.9452 237.041 69.0131 246.382 66.0085C250.528 64.7417 254.828 64.0495 259.162 63.9513C277.499 63.4548 292.526 76.9564 293.046 96.4758C293.779 124.094 272.675 127.014 249.503 141.627C248.403 142.324 247.304 143.034 246.204 143.779C228.186 156.074 227.761 170.758 228.245 188.705L228.517 199.346C228.752 208.131 232.405 216.478 238.7 222.61C244.996 228.742 253.436 232.174 262.224 232.178H263.134C269.643 232.014 275.966 229.972 281.34 226.296C286.714 222.621 290.911 217.47 293.424 211.464C294.676 208.466 295.473 205.298 295.789 202.065C296.427 195.326 297.882 188.764 300.755 184.012C301.655 182.327 302.895 180.847 304.397 179.667C305.899 178.487 307.63 177.631 309.48 177.154C327.131 169.056 342.796 159.42 354.501 147.479C368.381 133.327 376.704 115.972 376.125 94.2767V94.324Z" fill="#DC016A"/>
<path d="M253.357 211.203C264.789 219.089 282.015 220.957 293.412 211.487C290.899 217.493 286.702 222.644 281.328 226.32C275.954 229.995 269.631 232.037 263.122 232.201H262.212C253.43 232.192 244.997 228.758 238.707 222.629C232.418 216.5 228.766 208.16 228.529 199.381L228.257 188.74C227.772 170.817 228.198 156.133 246.216 143.814C247.315 143.069 248.415 142.36 249.514 141.662C272.687 127.049 293.791 124.129 293.058 96.5108C292.537 76.956 277.511 63.4898 259.173 63.9864C254.839 64.0845 250.539 64.7767 246.393 66.0436C237.052 69.0481 228.927 74.9803 223.22 82.9619C219.346 88.1756 214.054 92.1661 207.976 94.4584C201.898 96.7507 195.29 97.2482 188.937 95.8917C182.584 94.5352 176.755 91.3819 172.143 86.8071C167.532 82.2322 164.332 76.4286 162.924 70.0869C173.34 73.8702 189.005 78.1146 202.708 67.7224C239.429 39.6906 281.247 28.9674 307.588 68.0652C333.929 107.163 301.097 140.657 259.445 156.795C238.957 164.705 246.771 206.664 253.357 211.203Z" fill="#FF0689"/>
<path d="M169.153 57.3062C169.153 57.3062 165.973 77.1566 186.367 84.8769C206.762 92.5971 220.831 58.6894 251.7 55.32C282.569 51.9505 296.78 69.1053 300.705 84.8769" stroke="white" stroke-width="2" stroke-linecap="round" stroke-linejoin="round"/>
<path d="M237.988 174.163C237.988 174.163 234.678 195.302 241.535 210.814C248.392 226.325 275.159 227.448 283.435 209.513C291.711 191.578 281.07 184.047 304.846 171.42C328.622 158.793 336.637 151.203 340.775 146.45" stroke="white" stroke-width="2" stroke-linecap="round" stroke-linejoin="round"/>
<path d="M238.956 9.34165C238.956 9.34165 301.096 0.190826 339.094 35.5291C377.093 70.8673 359.5 120.369 359.5 120.369" stroke="white" stroke-width="2" stroke-linecap="round" stroke-linejoin="round"/>
<path d="M276.032 136.46C276.032 136.46 303.531 124.709 302.491 95.5537" stroke="white" stroke-width="2" stroke-linecap="round" stroke-linejoin="round"/>
<path d="M298.686 333.853C293.468 339.333 286.996 343.462 279.827 345.885C272.658 348.308 265.008 348.951 257.535 347.76C250.062 346.568 242.991 343.578 236.931 339.046C230.87 334.515 226.003 328.577 222.747 321.746C219.492 314.915 217.946 307.395 218.243 299.834C218.54 292.272 220.671 284.896 224.452 278.342C228.233 271.787 233.552 266.25 239.949 262.208C246.346 258.165 253.629 255.739 261.173 255.137C261.918 255.078 262.651 255.042 263.407 255.019C267.833 254.893 272.255 255.391 276.542 256.497C261.043 258.861 234.832 267.232 235.919 296.079C237.48 336.939 284.227 334.905 296.215 306.129C300.732 295.311 305.674 290.913 310.154 290.57C310.957 293.862 311.405 297.231 311.49 300.619C311.67 306.731 310.631 312.818 308.432 318.524C306.234 324.23 302.921 329.441 298.686 333.853Z" fill="#FF0689"/>
<path d="M301.475 302.239C301.302 311.953 297.321 321.211 290.39 328.019C283.459 334.827 274.132 338.642 264.417 338.642C254.701 338.642 245.374 334.827 238.443 328.019C231.513 321.211 227.532 311.953 227.358 302.239C227.358 281.762 240.884 264.158 261.349 264.158" stroke="white" stroke-width="2" stroke-linecap="round" stroke-linejoin="round"/>
<path d="M208.181 434.866C208.181 438.508 192.894 441.464 174.025 441.464C155.156 441.464 139.857 438.508 139.857 434.866C139.857 431.225 155.156 428.269 174.025 428.269C192.894 428.269 208.181 431.225 208.181 434.866Z" fill="#C4928A"/>
<path d="M187.267 279.469C186.723 279.327 185.695 280.651 185.695 280.651L183.602 278.511C183.913 277.459 184.142 276.384 184.288 275.296C184.453 274.113 184.666 271.56 184.808 269.798C188.083 266.062 197.754 254.18 196.052 245.81C193.994 235.748 186.475 216.395 186.475 216.395C184.666 216.395 173.647 222.613 173.647 222.613L183.732 247.441L178.306 263.721L178.223 263.662L173.99 273.794C173.576 274.791 173.448 275.883 173.622 276.949C173.795 278.014 174.263 279.01 174.972 279.824C175.649 280.695 176.445 281.467 177.336 282.117C178.637 282.803 184.796 284.789 185.86 284.174C186.924 283.56 188.142 280.687 188.142 280.687C188.142 280.687 187.823 279.599 187.267 279.469Z" fill="#FFA08B"/>
<path d="M147.826 411.801L150.32 428.27L160.417 424.451L159.672 411.801H147.826Z" fill="#FFA08B"/>
<path d="M180.115 409.885L181.971 422.216L195.024 426.189L192.978 409.885H180.115Z" fill="#FFA08B"/>
<path d="M196.205 415.95C187.775 420.868 177.738 417.593 177.738 417.593L163.385 300.962L161.754 301.766L162.487 346.539L162.711 359.213L163.669 418.031C158.234 420.199 152.174 420.199 146.739 418.031L136.382 304.095C133.758 290.258 133.634 276.063 136.015 262.183C143.014 262.561 178.365 262.514 178.365 262.514C178.365 262.514 185.245 309.368 187.35 323.662C187.894 327.362 188.532 332.836 189.218 339.291C189.88 345.498 190.589 352.639 191.275 360.005C193.793 386.511 196.205 415.95 196.205 415.95Z" fill="#006A66"/>
<path d="M173.694 192.702C181.104 199.415 186.334 208.195 188.709 217.908L178.175 220.639L173.694 192.702Z" fill="#FF6A6E"/>
<path d="M159.804 188.351C160.146 188.646 168.682 190.467 172.667 192.063C176.651 193.659 180.742 208.107 181.084 216.749C181.427 225.392 178.483 263.39 178.483 263.39C174.653 268.58 136.217 262.208 136.217 262.208C136.217 262.208 125.896 224.375 126.582 204.276C126.639 200.669 127.41 197.109 128.852 193.801L146.444 187.961L159.804 188.351Z" fill="#FFD179"/>
<path d="M144.788 191.483C144.788 191.483 149.789 195.574 155.429 195.574C161.068 195.574 161.955 191.33 161.955 191.33C161.289 190.151 160.776 188.891 160.43 187.582C159.826 185.237 159.521 182.826 159.519 180.406L147.235 174.494C147.886 177.247 148.031 180.096 147.661 182.9C147.292 185.926 146.315 188.845 144.788 191.483Z" fill="#FFA08B"/>
<path d="M147.637 182.889C151.121 186.058 155.698 187.753 160.406 187.618C159.802 185.273 159.497 182.862 159.495 180.441L147.211 174.53C147.857 177.268 148.001 180.1 147.637 182.889Z" fill="#B56F68"/>
<path d="M138.522 162.885C139.282 162.605 140.11 162.568 140.892 162.78C141.674 162.992 142.37 163.441 142.885 164.067C142.393 160.976 142.215 157.842 142.353 154.715C142.814 144.394 162.085 144.075 166.636 146.215C171.188 148.355 171.165 160.709 171.105 162.684C171.105 162.684 171.791 174.14 166.636 180.205C161.482 186.27 151.763 184.603 148.276 178.845C147.43 177.437 146.668 175.981 145.994 174.483C144.868 174.606 143.728 174.482 142.654 174.121C141.58 173.759 140.598 173.169 139.775 172.39C136.595 169.588 135.223 164.244 138.522 162.885Z" fill="#FFA08B"/>
<path d="M140.578 146.368C140.695 145.119 141.148 143.926 141.89 142.914C142.631 141.902 143.632 141.11 144.787 140.622C148.689 139.18 150.427 140.823 152.07 139.806C153.713 138.79 156.173 135.385 160.996 136.259C165.82 137.134 167.061 140.989 169 139.806C170.939 138.624 174.652 139.392 176.496 143.294C178.34 147.196 174.545 148.732 175.467 150.388C176.39 152.043 177.726 153.048 176.496 155.921C175.266 158.794 173.517 157.103 173.517 159.101C173.517 161.099 171.152 162.742 171.152 162.742C171.152 162.742 170.797 154.798 169.97 153.154C168.994 154.105 167.803 154.807 166.498 155.2C165.193 155.593 163.813 155.666 162.474 155.412C159.424 154.904 158.927 157.056 157.272 158.593C155.617 160.13 149.611 159.893 149.611 159.893C149.611 159.893 149.67 167.105 147.246 168.961C144.823 170.817 145.851 165.615 142.919 164.126C139.987 162.636 138.048 163.724 137.741 167.211C137.434 170.699 141.903 174.908 146.017 174.542C146.771 175.614 147.368 176.788 147.79 178.029C147.982 179.651 147.938 181.291 147.66 182.9C147.66 182.9 133.473 173.679 131.475 166.348C129.477 159.018 132.338 155.164 132.338 155.164C132.237 153.193 132.74 151.238 133.78 149.56C135.506 146.723 140.578 146.368 140.578 146.368Z" fill="#00445B"/>
<path d="M169.262 186.849C169.45 186.255 169.588 185.646 169.676 185.029C169.485 184.191 169.153 183.391 168.695 182.664C168.876 182.146 168.979 181.604 169.002 181.056C169.002 180.122 169.676 177.072 168.494 176.765C167.312 176.457 166.188 182.357 164.651 183.492C163.114 184.627 160.998 185.951 161.105 185.643C161.235 184.639 161.235 183.621 161.105 182.617C161.01 182.002 160.088 180.158 159.461 181.056C158.835 181.955 157.522 187.18 157.924 188.623C158.326 190.065 159.26 193.742 159.26 193.742L158.385 197.088L149.672 234.034L142.07 221.029L124.631 226.94C124.631 226.94 137.967 250.586 145.558 253.412C147.573 254.223 149.722 254.652 151.895 254.677C154.886 254.972 160.513 253.813 164.001 246.211C167.489 238.609 166.153 197.667 166.153 197.667L166.508 196.343C166.508 196.343 168.517 192.855 168.872 192.453C169.227 192.051 168.967 190.29 168.967 190.29C169.311 189.898 169.544 189.42 169.641 188.907C169.65 188.203 169.521 187.504 169.262 186.849Z" fill="#FFA08B"/>
<path d="M149.613 424.452C149.613 424.452 149.542 432.669 149.613 434.028C149.684 435.388 150.914 438.072 154.342 439.94C157.771 441.808 162.204 441.583 164.604 441.311C167.004 441.039 168.849 440.282 169.523 439.124C170.197 437.965 169.523 436.109 168.246 433.922C166.969 431.735 164.12 431.049 162.819 428.59C161.519 426.131 160.975 424.002 160.289 423.459C159.603 422.915 156.388 423.068 155.158 423.707C153.928 424.345 152.557 426.261 151.942 426.261C151.327 426.261 150.973 424.523 149.613 424.452Z" fill="#724F2B"/>
<path d="M181.237 421.507C181.367 424.203 181.722 429.606 182.479 431.781C182.479 431.781 182.479 433.164 186.546 433.377C190.613 433.59 194.999 433.377 197.6 433.897C200.201 434.418 207.058 434.098 208.24 433.354C208.571 433.085 208.838 432.747 209.021 432.362C209.205 431.978 209.3 431.557 209.3 431.131C209.3 430.705 209.205 430.284 209.021 429.9C208.838 429.515 208.571 429.176 208.24 428.908C206.538 427.667 196.276 422.536 194.289 420.833C192.717 420.937 191.224 421.561 190.045 422.607C188.65 423.907 184.997 421.625 182.762 420.502C182.596 420.426 182.414 420.393 182.231 420.407C182.049 420.421 181.873 420.481 181.721 420.581C181.568 420.682 181.444 420.82 181.359 420.982C181.274 421.144 181.232 421.324 181.237 421.507Z" fill="#724F2B"/>
<path d="M135.399 265.966C143.666 268.367 152.211 269.678 160.818 269.868C174.142 269.986 179.072 267.361 179.072 267.361" stroke="#004740" stroke-linecap="round" stroke-linejoin="round"/>
<path d="M161.753 301.766C161.753 301.766 163.598 291.965 170.219 289.376" stroke="#004740" stroke-linecap="round" stroke-linejoin="round"/>
<path d="M168.762 269.572C168.762 269.572 170.217 279.704 168.124 284.303C166.031 288.902 164.577 287.921 164.577 287.921V273.982" stroke="#004740" stroke-linecap="round" stroke-linejoin="round"/>
<path d="M134.526 275.154C134.526 275.154 142.601 274.693 144.055 268.061" stroke="#004740" stroke-linecap="round" stroke-linejoin="round"/>
<path d="M146.289 413.042C151.794 415.036 157.813 415.103 163.361 413.231" stroke="#004740" stroke-linecap="round" stroke-linejoin="round"/>
<path d="M177.265 413.811C177.265 413.811 187.906 415.856 196.182 411.801" stroke="#004740" stroke-linecap="round" stroke-linejoin="round"/>
<path d="M162.711 359.212C162.006 360.304 161.045 361.207 159.912 361.842C158.778 362.476 157.507 362.824 156.208 362.854C151.573 362.854 147.826 358.444 147.826 353.005C147.826 347.567 151.573 343.169 156.208 343.169C157.447 343.191 158.663 343.508 159.755 344.094C160.847 344.68 161.783 345.518 162.486 346.538L162.711 359.212Z" fill="#025650"/>
<path d="M191.274 360.005C190.624 360.207 189.946 360.307 189.264 360.301C184.654 360.301 180.906 355.572 180.906 349.802C180.906 344.033 184.63 339.327 189.182 339.292C189.879 345.499 190.589 352.687 191.274 360.005Z" fill="#025650"/>
<path d="M137.209 274.657C137.406 284.361 138.1 294.049 139.29 303.682L144.019 360.324L147.874 413.586" stroke="#004740" stroke-linecap="round" stroke-linejoin="round"/>
<path d="M163.987 295.571C163.987 295.571 173.54 351.41 173.776 356.257C174.013 361.105 180.113 414.567 180.113 414.567" stroke="#004740" stroke-linecap="round" stroke-linejoin="round"/>
<path d="M149.718 234.009C149.718 234.009 148.429 238.656 147.211 244.472" stroke="#B56F68" stroke-linecap="round" stroke-linejoin="round"/>
<path d="M183.779 247.464C183.779 247.464 188.614 245.1 192.35 245.454" stroke="#B56F68" stroke-linecap="round" stroke-linejoin="round"/>
<path d="M128.849 193.718C128.849 193.718 120.159 196.756 119.544 208.662C119.209 215.971 120.252 223.279 122.618 230.203L144.786 221.998C144.786 221.998 136.924 197.454 128.849 193.718Z" fill="#FF6A6E"/>
<path d="M168.693 182.64C168.241 183.506 167.668 184.302 166.991 185.005" stroke="#B56F68" stroke-linecap="round" stroke-linejoin="round"/>
<path d="M169.261 186.849C169.261 186.849 168.457 188.398 167.842 188.693" stroke="#B56F68" stroke-linecap="round" stroke-linejoin="round"/>
<path d="M169.001 190.29L167.842 191.484" stroke="#B56F68" stroke-linecap="round" stroke-linejoin="round"/>
<path d="M182.68 430.28C182.68 430.28 185.836 430.587 191.523 430.942C197.21 431.297 204.859 431.971 208.181 430.942" stroke="#B56F68" stroke-linecap="round" stroke-linejoin="round"/>
<path d="M150.192 432.762C151.07 433.981 152.192 435.003 153.487 435.764C154.781 436.525 156.22 437.009 157.711 437.184C161.256 437.631 164.85 437.496 168.352 436.782" stroke="#B56F68" stroke-linecap="round" stroke-linejoin="round"/>
<path d="M168.717 176.942C168.717 176.942 168.718 176.552 168.02 176.942C167.322 177.332 165.904 182.097 165.112 182.972C163.861 184.07 162.533 185.077 161.139 185.986C161.55 184.82 161.55 183.547 161.139 182.38C160.406 180.678 159.555 181.08 159.555 181.08C158.662 183 158.129 185.068 157.982 187.18C158.168 189.502 158.604 191.797 159.283 194.026" stroke="#B56F68" stroke-linecap="round" stroke-linejoin="round"/>
<path d="M140.459 165.982C140.459 165.982 143.853 169.009 144.278 171.799" stroke="#B56F68" stroke-linecap="round" stroke-linejoin="round"/>
<path d="M141.429 171.196C141.429 171.196 141.937 169.316 142.989 168.832" stroke="#B56F68" stroke-linecap="round" stroke-linejoin="round"/>
<path d="M123.494 226.633L142.15 219.953" stroke="#FF8D95" stroke-miterlimit="10"/>
<path d="M141.429 146.734H144.786" stroke="#005C75" stroke-linecap="round" stroke-linejoin="round"/>
<path d="M133.792 155.543L135.412 155.945" stroke="#005C75" stroke-linecap="round" stroke-linejoin="round"/>
<path d="M171.14 151.263C170.881 152.234 170.364 153.118 169.644 153.819C168.924 154.521 168.027 155.014 167.049 155.247C163.502 156.252 161.823 154.668 160.511 155.519C159.199 156.37 156.562 161.537 149.587 159.905C149.587 159.905 149.268 168.997 146.69 169.281C144.113 169.564 145.413 165.001 142.375 163.889" stroke="#005C75" stroke-linecap="round" stroke-linejoin="round"/>
<path d="M165.654 141.745C165.654 141.745 167.309 142.064 167.735 141.023" stroke="#005C75" stroke-linecap="round" stroke-linejoin="round"/>
<path d="M153.182 141.06C153.787 141.405 154.489 141.542 155.18 141.45" stroke="#005C75" stroke-linecap="round" stroke-linejoin="round"/>
<path d="M147.85 156.406L148.82 157.021" stroke="#005C75" stroke-linecap="round" stroke-linejoin="round"/>
<path d="M156.089 150.294C156.636 149.915 157.259 149.66 157.915 149.548C158.57 149.435 159.243 149.468 159.884 149.643" stroke="#005C75" stroke-linecap="round" stroke-linejoin="round"/>
<path d="M123.931 149.147C116.992 147.576 110.598 144.185 105.405 139.322C114.022 132.763 119.908 123.247 121.929 112.607C123.95 101.968 121.964 90.9567 116.352 81.6941C110.741 72.4314 101.901 65.5722 91.535 62.4371C81.1689 59.3019 70.0094 60.1125 60.2052 64.7128C50.4011 69.313 42.6453 77.3777 38.4313 87.354C34.2174 97.3303 33.8431 108.513 37.3806 118.749C40.9181 128.984 48.1172 137.55 57.5918 142.795C67.0665 148.041 78.1468 149.596 88.6993 147.161C99.8612 151.872 112.31 152.574 123.931 149.147Z" fill="#FFA1D7"/>
<path d="M65.7397 92.2433C64.8999 91.9102 64.145 91.3937 63.5304 90.7315C62.9157 90.0693 62.4568 89.2781 62.1871 88.4158C61.9174 87.5535 61.8438 86.6418 61.9716 85.7474C62.0995 84.853 62.4255 83.9984 62.9259 83.2462C65.4205 79.5102 70.0196 75.5023 78.532 74.8875C89.4326 74.0954 99.6947 80.527 100.44 90.7773C100.96 97.871 95.9587 102.6 89.1961 106.147C87.5882 106.608 87.0562 108.63 86.9498 110.722C86.8639 112.182 86.2484 113.56 85.2189 114.598C84.1894 115.637 82.8164 116.264 81.3576 116.362C80.5672 116.42 79.7732 116.321 79.0208 116.072C78.2685 115.823 77.5727 115.428 76.9732 114.91C76.3736 114.392 75.8821 113.76 75.5268 113.052C75.1715 112.343 74.9593 111.572 74.9024 110.781L74.8314 108.866C74.595 105.662 74.5477 103.038 77.6689 100.685C81.9015 97.5281 86.0394 97.0079 85.6611 91.8532C85.6291 91.0672 85.4376 90.2958 85.0984 89.5861C84.7591 88.8763 84.2791 88.2429 83.6876 87.7243C83.096 87.2057 82.4052 86.8128 81.6572 86.5694C80.9091 86.326 80.1194 86.2371 79.3359 86.3083C78.0744 86.3848 76.849 86.7589 75.7598 87.4C74.6707 88.0412 73.7489 88.9311 73.0698 89.997C72.2962 91.145 71.1532 91.9938 69.8305 92.4024C68.5078 92.8111 67.0852 92.7549 65.7988 92.2433H65.7397ZM90.5675 128.196C90.6769 129.84 90.2977 131.479 89.4776 132.907C88.6575 134.335 87.4332 135.489 85.9588 136.223C84.4844 136.957 82.8258 137.238 81.1918 137.032C79.5578 136.825 78.0215 136.14 76.7763 135.062C75.531 133.984 74.6325 132.562 74.1938 130.974C73.7551 129.387 73.7958 127.705 74.3109 126.14C74.8259 124.576 75.7923 123.199 77.0883 122.183C78.3843 121.166 79.952 120.556 81.5941 120.429C82.6965 120.334 83.8068 120.461 84.8593 120.802C85.9118 121.144 86.8852 121.693 87.7218 122.417C88.5584 123.141 89.2413 124.026 89.7301 125.018C90.2189 126.011 90.5037 127.092 90.5675 128.196Z" fill="#DC016A"/>
<path d="M458.635 426.981C458.754 431.9 436.409 436.44 408.72 437.173C381.031 437.906 358.473 434.465 358.343 429.559C358.213 424.652 380.57 420.1 408.259 419.379C435.947 418.658 458.505 422.075 458.635 426.981Z" fill="#C4928A"/>
<path d="M401.035 364.049C401.035 364.049 402.371 367.595 401.2 382.563C400.03 397.531 398.954 414.224 398.954 414.224L389.496 415.631L384.104 365.195L401.035 364.049Z" fill="#FFA08B"/>
<path d="M434.244 364.51C434.244 364.51 435.982 367.891 436.538 382.882C437.094 397.873 437.992 414.603 437.992 414.603L428.333 414.165L417.527 367.56L434.244 364.51Z" fill="#FFA08B"/>
<path d="M380.203 282.01L382.414 372.573C386.824 377.042 403.695 372.431 403.695 372.431C403.695 372.431 405.941 291.469 406.142 284.056C406.13 284.115 402.536 272.15 380.203 282.01Z" fill="#B7515D"/>
<path d="M401.401 297.274L399.379 368.66" stroke="#A53F4E" stroke-linecap="round" stroke-linejoin="round"/>
<path d="M436.728 370.989L427.943 286.598C427.943 286.598 428.7 268.521 421.311 254.333L380.96 255.007L380.203 282.011L398.552 289.518C402.595 307.631 417.067 372.017 417.067 372.017C425.236 377.598 436.728 370.989 436.728 370.989Z" fill="#FF6A6E"/>
<path d="M387.156 186.778L356.417 218.57L363.735 229.908C363.735 229.908 381.221 221.998 385.359 214.538C389.497 207.078 387.156 186.778 387.156 186.778Z" fill="#FFD179"/>
<path d="M400.703 182.841C400.361 183.113 392.132 184.626 388.266 186.045C384.4 187.464 380.084 201.214 379.517 209.501C378.949 217.789 380.959 255.007 380.959 255.007C384.506 260.103 421.31 254.333 421.31 254.333C421.31 254.333 432.247 218.368 432.14 198.979C432.18 195.517 431.533 192.081 430.237 188.871L413.519 182.794L400.703 182.841Z" fill="#006A66"/>
<path d="M388.905 154.679C389.079 159.478 388.452 164.273 387.049 168.866C386.136 171.847 384.949 174.736 383.502 177.497C383.502 177.793 384.85 178.679 386.895 178.36C388.94 178.041 389.141 178.904 391.352 180.346C393.563 181.789 394.639 179.862 396.282 181.138C398.087 182.306 400.213 182.877 402.359 182.77C403.163 182.498 400.858 171.29 400.858 171.29L395.23 153.118L388.905 154.679Z" fill="#00445B"/>
<path d="M413.46 182.592C413.829 183.836 413.712 185.174 413.132 186.335C412.553 187.496 411.554 188.393 410.338 188.846C408.558 189.583 406.649 189.953 404.722 189.934H404.474C403.671 189.894 402.888 189.667 402.188 189.272C401.488 188.877 400.889 188.325 400.439 187.658C399.99 186.992 399.701 186.23 399.597 185.432C399.493 184.635 399.576 183.825 399.84 183.065C399.946 182.758 400.053 182.45 400.147 182.143C400.79 179.911 401.147 177.607 401.211 175.286L413.152 169.942C412.458 172.561 412.241 175.285 412.514 177.981C412.67 179.546 412.987 181.091 413.46 182.592Z" fill="#FFA08B"/>
<path d="M412.513 177.97C409.085 180.905 404.652 182.397 400.146 182.132C400.789 179.9 401.147 177.596 401.211 175.275L413.152 169.931C412.457 172.55 412.241 175.274 412.513 177.97Z" fill="#B56F68"/>
<path d="M421.795 159.03C421.069 158.754 420.276 158.708 419.523 158.899C418.77 159.089 418.094 159.506 417.586 160.094C418.146 157.145 418.4 154.146 418.343 151.145C418.189 141.237 399.722 140.421 395.3 142.337C390.878 144.252 390.571 156.11 390.571 158.002C390.571 158.002 389.602 168.973 394.378 174.932C399.154 180.891 408.565 179.555 412.029 174.116C412.879 172.796 413.649 171.426 414.335 170.014C415.412 170.16 416.507 170.071 417.546 169.753C418.585 169.434 419.543 168.894 420.353 168.169C423.474 165.521 424.928 160.437 421.795 159.03Z" fill="#FFA08B"/>
<path d="M395.691 140.894C395.691 140.894 393.09 140.385 390.797 144.44C388.503 148.496 387.557 153.378 385.559 154.348C387.419 155.244 389.418 155.816 391.47 156.039C391.47 156.039 392.913 151.309 394.639 149.796C394.103 152.163 393.709 154.559 393.457 156.973C393.457 156.973 399.368 158.45 402.016 158.155L403.542 153.426L404.074 158.332C405.907 158.697 407.773 158.868 409.642 158.841L411.155 154.36C411.155 154.36 410.245 160.898 412.61 162.269C412.61 162.269 412.219 165.497 413.638 167.176C413.638 167.176 416.003 160.082 419.786 160.673C423.569 161.264 421.193 167.211 418.911 168.571C417.486 169.398 415.886 169.876 414.241 169.966C414.241 169.966 412.799 172.768 412.491 173.3C412.491 173.3 411.829 178.655 412.799 181.138C413.768 183.621 416.937 182.817 417.717 182.261C418.497 181.706 419.869 182.604 421.536 182.344C423.203 182.084 423.274 180.925 424.231 180.925C425.189 180.925 426.442 181.091 427.045 179.968C427.045 179.968 427.353 179.14 429.161 179.27C430.038 179.365 430.923 179.175 431.683 178.728C432.443 178.28 433.039 177.6 433.382 176.787C433.382 176.787 427.979 172.921 428.819 163.782C429.658 154.643 428.227 150.565 425.792 148.921C425.792 148.921 425.071 142.62 415.601 138.635C406.131 134.651 398.836 137.642 395.691 140.894Z" fill="#00445B"/>
<path d="M430.237 188.871C427.609 192.603 425.756 196.824 424.787 201.285C423.951 205.326 424.75 209.535 427.01 212.989L448.586 235.157L456.413 226.053C456.413 226.053 448.846 212.883 440.854 201.001C432.862 189.119 430.237 188.871 430.237 188.871Z" fill="#FFD179"/>
<path d="M363.592 223.134C362.257 216.383 349.736 197.502 346.52 192.726C346.216 190.978 345.539 189.317 344.534 187.855C343.884 184.911 343.033 179.508 342.311 181.411C341.831 183.135 341.726 184.941 342.004 186.708L335.726 185.065C334.698 184.686 331.742 183.658 330.43 184.19C329.354 184.627 332.451 185.833 334.591 186.554L334.426 186.944C333.173 186.471 329.874 185.325 328.585 185.845C327.297 186.365 331.872 187.949 333.775 188.564L333.492 189.285C333.279 189.203 329.413 187.642 327.864 188.28C326.682 188.777 330.808 190.267 332.83 190.929L332.64 191.39C331.387 190.94 328.952 190.207 327.793 190.669C326.185 191.319 333.787 193.66 333.787 193.66L340.006 196.391C341.307 201.049 347.608 223.039 351.38 227.437C355.612 232.367 359.655 232.486 361.003 232.226C362.351 231.965 365.118 230.913 363.592 223.134Z" fill="#FFA08B"/>
<path d="M482.363 195.811C481.181 195.279 478.757 195.882 477.48 196.26L477.315 195.787C479.372 195.243 483.628 193.99 482.434 193.423C480.909 192.701 476.972 194.037 476.747 194.108L476.499 193.375C478.45 192.867 483.084 191.531 481.843 190.952C480.602 190.372 477.232 191.318 475.932 191.72L475.802 191.318C477.977 190.703 481.134 189.675 480.081 189.178C478.805 188.575 475.79 189.426 474.749 189.757L468.377 191.046C468.763 189.298 468.763 187.486 468.377 185.738C467.762 183.799 466.615 189.131 465.8 192.051C464.711 193.446 463.937 195.059 463.53 196.78H463.589L448.574 235.098C453.09 239.744 459.214 240.063 461.673 235.464C463.801 231.492 469.807 206.723 471.368 200.209L476.192 198.4C476.192 198.4 483.9 196.556 482.363 195.811Z" fill="#FFA08B"/>
<path d="M380.049 419.142C375.414 421.778 371.607 421.365 370.862 424.498C370.437 426.295 376.857 427.075 380.912 427.193C384.967 427.312 390.015 426.011 393.598 425.562C397.18 425.113 399.781 424.746 400.23 424.167C400.679 423.587 400.23 416.293 399.946 415.087C399.817 414.42 399.492 413.806 399.012 413.325C397.41 413.969 395.728 414.391 394.011 414.578C390.725 415.028 391.174 413.006 389.211 413.514C387.84 413.869 384.683 416.529 380.049 419.142Z" fill="#724F2B"/>
<path d="M427.15 412.759C427.15 412.759 425.767 417.488 424.644 422.087C423.521 426.686 421.097 429.618 421.31 431.605C421.523 433.591 422.894 434.82 425.282 434.891C427.671 434.962 431.324 434.667 433.984 432.066C436.644 429.465 437.956 424.547 438.5 423.175C439.315 420.997 440.006 418.775 440.569 416.519C440.569 415.904 437.708 408.491 437.708 408.491C437.708 408.491 436.621 412.215 435.344 413.22C434.067 414.225 431.135 410.288 427.15 412.759Z" fill="#724F2B"/>
<path d="M398.161 183.479C398.161 183.479 396.293 185.135 397.783 188.327C399.272 191.519 406.922 193.635 411.97 190.75C417.018 187.866 417.881 184.378 417.881 184.378" stroke="#004740" stroke-linecap="round" stroke-linejoin="round"/>
<path d="M383.076 219.409C388.235 219.287 393.397 219.433 398.54 219.846C404.7 220.52 412.81 223.169 416.795 223.287" stroke="#004740" stroke-linecap="round" stroke-linejoin="round"/>
<path d="M380.853 258.874C380.853 258.874 383.217 260.801 394.177 261.238C405.136 261.676 423.024 258.082 423.024 258.082" stroke="#FF8D95" stroke-linecap="round" stroke-linejoin="round"/>
<path d="M387.036 262.361C387.036 262.361 387.249 272.103 389.342 277.92C391.434 283.737 394.709 285.286 394.709 285.286L391.895 264.844" stroke="#FF8D95" stroke-linecap="round" stroke-linejoin="round"/>
<path d="M412.893 259.737C412.893 259.737 416.25 265.045 421.027 265.908" stroke="#FF8D95" stroke-linecap="round" stroke-linejoin="round"/>
<path d="M420.636 258.471C420.636 258.471 422.02 259.654 423.616 280.036C425.212 300.419 433.724 368.565 433.724 368.565" stroke="#FF8D95" stroke-linecap="round" stroke-linejoin="round"/>
<path d="M416.51 369.5C416.51 369.5 428.818 371.32 436.384 367.667" stroke="#FF8D95" stroke-linecap="round" stroke-linejoin="round"/>
<path d="M382.332 369.239C382.332 369.239 385.536 370.729 391.979 370.185C395.958 369.841 399.909 369.221 403.802 368.329" stroke="#A53F4E" stroke-linecap="round" stroke-linejoin="round"/>
<path d="M429.693 193.919C429.693 193.919 425.897 204.288 428.002 211.204" stroke="#EAB35C" stroke-linecap="round" stroke-linejoin="round"/>
<path d="M450.666 223.724C450.666 223.724 448.562 229.636 448.633 233.608" stroke="#EAB35C" stroke-linecap="round" stroke-linejoin="round"/>
<path d="M363.688 217.978C365.665 220.237 366.672 223.185 366.489 226.183" stroke="#EAB35C" stroke-linecap="round" stroke-linejoin="round"/>
<path d="M377.34 202.255C377.34 202.255 376.241 211.43 376.95 216.064" stroke="#EAB35C" stroke-linecap="round" stroke-linejoin="round"/>
<path d="M471.378 200.256L468.517 201.013" stroke="#B56F68" stroke-linecap="round" stroke-linejoin="round"/>
<path d="M340.005 196.402L342.334 197.383" stroke="#B56F68" stroke-linecap="round" stroke-linejoin="round"/>
<path d="M342.027 186.706C342.027 186.706 341.72 190.028 342.524 191.565" stroke="#B56F68" stroke-linecap="round" stroke-linejoin="round"/>
<path d="M335.016 186.14L332.367 191.886" stroke="#B56F68" stroke-linecap="round" stroke-linejoin="round"/>
<path d="M468.258 191.317C468.462 192.52 468.297 193.757 467.785 194.864" stroke="#B56F68" stroke-linecap="round" stroke-linejoin="round"/>
<path d="M475.246 190.537L477.563 196.543" stroke="#B56F68" stroke-linecap="round" stroke-linejoin="round"/>
<path d="M372.188 424.025C372.188 424.025 373.925 425.609 383.726 424.841C388.943 424.495 394.125 423.748 399.226 422.606" stroke="#B56F68" stroke-linecap="round" stroke-linejoin="round"/>
<path d="M422.421 432.159C422.421 432.159 428.711 432.986 432.671 429.7C436.632 426.413 439.375 415.914 439.375 415.914" stroke="#B56F68" stroke-linecap="round" stroke-linejoin="round"/>
<path d="M425.826 148.898L422.48 149.277" stroke="#005C75" stroke-linecap="round" stroke-linejoin="round"/>
<path d="M391.682 145.635C390.921 146.833 390.299 148.115 389.826 149.454" stroke="#005C75" stroke-linecap="round" stroke-linejoin="round"/>
<path d="M395.691 140.894L397.689 140.953" stroke="#005C75" stroke-linecap="round" stroke-linejoin="round"/>
<path d="M399.663 148.165L399.001 150.565" stroke="#005C75" stroke-linecap="round" stroke-linejoin="round"/>
<path d="M407.325 149.596L407.964 151.37" stroke="#005C75" stroke-linecap="round" stroke-linejoin="round"/>
<path d="M425.259 151.854C427.222 154.751 428.063 158.265 427.623 161.737" stroke="#005C75" stroke-linecap="round" stroke-linejoin="round"/>
<path d="M410.93 139.628C410.93 139.628 419.513 140.657 422.859 146.509" stroke="#005C75" stroke-linecap="round" stroke-linejoin="round"/>
<path d="M414.749 172.035C414.749 172.035 415.6 178.124 416.924 180.524" stroke="#005C75" stroke-linecap="round" stroke-linejoin="round"/>
<path d="M418.662 172.638L419.607 175.629" stroke="#005C75" stroke-linecap="round" stroke-linejoin="round"/>
<path d="M423.746 170.959C424.502 172.888 425.378 174.768 426.37 176.587" stroke="#005C75" stroke-linecap="round" stroke-linejoin="round"/>
<path d="M389.092 176.893C389.722 175.096 390.162 173.238 390.404 171.348" stroke="#005C75" stroke-linecap="round" stroke-linejoin="round"/>
<path d="M475.246 86.0126C467.674 86.0182 460.311 88.4946 454.275 93.0657C448.238 97.6367 443.858 104.053 441.8 111.339C439.741 118.626 440.117 126.386 442.869 133.439C445.622 140.493 450.601 146.456 457.051 150.423C452.107 155.721 446.551 160.412 440.499 164.397C440.499 164.397 461.957 163.925 474.785 155.542H475.317C484.539 155.542 493.383 151.879 499.904 145.358C506.425 138.837 510.088 129.993 510.088 120.771C510.088 111.55 506.425 102.706 499.904 96.1849C493.383 89.6641 484.539 86.0007 475.317 86.0007L475.246 86.0126Z" fill="#FFA9D6"/>
<path d="M464.547 106.005C463.9 105.481 463.378 104.818 463.02 104.067C462.662 103.315 462.476 102.493 462.476 101.66C462.476 100.827 462.662 100.005 463.02 99.2532C463.378 98.5015 463.9 97.8393 464.547 97.315C467.751 94.7022 472.918 92.4204 480.555 94.1702C490.38 96.4283 497.686 104.811 495.57 114.103C494.092 120.523 488.406 123.361 481.501 124.602C479.964 124.602 478.947 126.21 478.285 128.019C477.817 129.285 476.903 130.336 475.714 130.976C474.526 131.616 473.145 131.8 471.83 131.495C470.393 131.162 469.147 130.274 468.365 129.024C467.582 127.774 467.328 126.264 467.657 124.827L468.047 123.1C468.709 120.216 469.383 117.887 472.776 116.669C477.363 115.026 481.146 115.688 482.234 111.041C482.418 110.34 482.458 109.61 482.351 108.893C482.244 108.176 481.993 107.489 481.613 106.872C481.232 106.256 480.731 105.722 480.139 105.305C479.547 104.888 478.876 104.595 478.167 104.444C477.034 104.171 475.853 104.169 474.719 104.438C473.585 104.707 472.53 105.24 471.641 105.993C470.648 106.794 469.411 107.231 468.135 107.231C466.86 107.231 465.623 106.794 464.63 105.993L464.547 106.005ZM476.701 144.417C476.354 145.896 475.577 147.239 474.467 148.277C473.358 149.315 471.967 150.001 470.468 150.25C468.97 150.499 467.431 150.298 466.046 149.674C464.661 149.05 463.492 148.03 462.685 146.742C461.879 145.455 461.472 143.958 461.515 142.439C461.558 140.921 462.049 139.449 462.927 138.209C463.805 136.969 465.03 136.017 466.448 135.472C467.866 134.928 469.414 134.815 470.896 135.148C471.89 135.368 472.83 135.784 473.661 136.371C474.493 136.958 475.2 137.704 475.74 138.567C476.28 139.429 476.643 140.391 476.808 141.395C476.973 142.4 476.937 143.427 476.701 144.417Z" fill="#DC016A"/>
</svg>
