<svg width="155" height="49" viewBox="0 0 155 49" fill="none" xmlns="http://www.w3.org/2000/svg">
<path d="M4.96307 5.75835C6.49049 5.4644 26.0365 1.40286 29.6591 0.626505C31.2391 0.288008 32.8311 0.00618935 33.1966 5.04398e-05C33.5731 -0.00608847 36.22 0.54884 39.3011 1.27994C43.7743 2.34126 50.321 3.87213 51.8334 4.21034C52.3746 4.33141 53 5.04253 53 5.53678C53 6.15081 52.7774 6.65049 52.392 6.90147C52.2084 7.02097 46.6307 8.2793 39.9969 9.69754C33.3631 11.1159 25.9964 12.6919 23.6264 13.1997C21.2564 13.7077 19.1619 14.1231 18.9719 14.1231C18.782 14.123 15.938 12.8926 12.6519 11.3887C8.12048 9.31506 6.54938 8.65792 6.14778 8.66834C4.65023 8.70717 3.48376 9.49981 3.15541 10.7017C2.96049 11.4156 3.03303 12.9452 3.31427 14.0469C3.44857 14.5728 3.66503 14.9189 4.15267 15.3872C4.73138 15.9428 5.67148 16.3985 12.0064 19.1943L19.2026 22.3702L20.6964 22.043C30.1135 19.9798 51.1794 15.5513 51.5655 15.5538C52.8154 15.5618 53.4483 17.0462 52.6027 17.9868C52.2139 18.4194 52.0513 18.4615 44.8823 19.9916C40.8546 20.8514 33.487 22.4296 28.51 23.4991C23.5331 24.5685 19.2606 25.4407 19.0157 25.4373C18.76 25.4336 16.0867 24.3308 12.7392 22.8481C7.18023 20.3858 6.87601 20.2692 6.21816 20.3478C3.79947 20.6372 2.87991 21.7128 3.0573 24.0452C3.17911 25.6477 3.41453 26.3416 4.07482 27.0437C4.61691 27.6203 5.27519 27.942 11.9339 30.8825L19.2014 34.0919L20.1211 33.89C27.9183 32.1787 51.1921 27.2574 51.4885 27.2574C52.3212 27.2574 53 27.9517 53 28.8033C53 29.3827 52.3924 30.0733 51.7327 30.2438C51.4423 30.3189 43.9213 31.932 35.0196 33.8285L18.8346 37.2767L12.8982 34.6441L6.96191 32.0115L5.99035 32.1277C4.33552 32.3257 3.47816 32.9357 3.14521 34.1522C2.94828 34.8715 3.0573 36.5941 3.36425 37.6103C3.77261 38.963 3.9332 39.0565 11.9254 42.5955L19.1835 45.8096L25.2113 44.522C47.1977 39.8252 51.2919 38.9642 51.6367 38.9642C52.1971 38.9642 53 39.8009 53 40.3847C53 41.0121 52.6557 41.6069 52.1808 41.7995C51.7376 41.9794 52.1533 41.8889 32.6539 46.0516L18.8432 49L11.324 45.6784C7.18828 43.8516 3.5461 42.2098 3.2301 42.0299C2.3848 41.5489 1.18257 40.2803 0.798195 39.4638C0.298342 38.4021 -0.00185861 36.8606 8.6601e-06 35.3669C0.00288138 33.1485 0.463955 31.9464 1.79072 30.6992L2.60744 29.9314L1.88653 29.2011C0.514801 27.8116 -0.0765482 25.8898 0.0218425 23.1408C0.0699606 21.7942 0.127845 21.5109 0.522557 20.6902C0.964525 19.7709 1.61319 18.969 2.28583 18.5102L2.63429 18.2725L1.90549 17.5065C0.498285 16.0278 -0.076261 14.1754 0.0218425 11.434C0.0699606 10.0863 0.128279 9.80147 0.529167 8.95473C1.36412 7.191 2.76443 6.18151 4.96307 5.75835Z" fill="white"/>
<path d="M68.3 7.24H72.3V21H68.3V7.24ZM73.14 16.18V11.88L76.3 7.24H80.66L75.92 13.72L80.72 21H76.24L73.14 16.18ZM81.9523 7.24H85.9523V21H81.9523V7.24ZM86.7923 7.24H91.8723V10.3H86.7923V7.24ZM86.7923 12.52H90.9323V15.58H86.7923V12.52ZM86.7923 17.94H91.8723V21H86.7923V17.94ZM94.2766 7.24H98.2766V21H94.2766V7.24ZM99.1166 17.78H103.397V21H99.1166V17.78ZM75.94 36.12C75.94 34.96 75.9333 34.2 75.92 33.84C75.8933 33.2933 75.82 32.9 75.7 32.66C75.58 32.4067 75.3867 32.2533 75.12 32.2C74.8533 32.16 74.4733 32.14 73.98 32.14C73.4067 32.14 73.0333 32.1667 72.86 32.22V29.1C72.98 29.0867 73.16 29.08 73.4 29.08H73.98C75.4733 29.08 76.6267 29.2 77.44 29.44C78.2667 29.6667 78.8667 30.0467 79.24 30.58C79.5867 31.0733 79.8 31.72 79.88 32.52C79.9733 33.32 80.02 34.52 80.02 36.12C80.02 37.52 79.9867 38.6 79.92 39.36C79.8667 40.1067 79.72 40.7267 79.48 41.22C79.2133 41.78 78.8 42.2067 78.24 42.5C77.6933 42.7933 76.9267 42.9867 75.94 43.08V36.12ZM73.98 43.16C72.0333 43.16 70.6333 42.9467 69.78 42.52C69.34 42.3067 68.9933 42.02 68.74 41.66C68.4867 41.3 68.3 40.8533 68.18 40.32C68.0733 39.8533 68.0067 39.32 67.98 38.72C67.9533 38.1067 67.94 37.24 67.94 36.12C67.94 34.72 67.9667 33.6467 68.02 32.9C68.0867 32.1533 68.24 31.5267 68.48 31.02C68.7467 30.4733 69.1533 30.0533 69.7 29.76C70.2467 29.4667 71.02 29.2667 72.02 29.16V36.12C72.02 36.9067 72.0333 37.66 72.06 38.38C72.0867 38.9267 72.1533 39.3267 72.26 39.58C72.38 39.8333 72.5733 39.98 72.84 40.02C73.0667 40.0733 73.4467 40.1 73.98 40.1C74.5267 40.1 74.9 40.08 75.1 40.04V43.14C74.98 43.1533 74.8 43.16 74.56 43.16H73.98ZM82.2648 29.24H86.2648V43H82.2648V29.24ZM87.1048 38.18V33.88L90.2648 29.24H94.6248L89.8848 35.72L94.6848 43H90.2048L87.1048 38.18ZM101.517 43.16C100.117 43.16 99.0372 43.0467 98.2772 42.82C97.5172 42.5933 96.9572 42.2267 96.5972 41.72C96.2639 41.2533 96.0572 40.66 95.9772 39.94C95.8972 39.22 95.8572 38.1467 95.8572 36.72V29.24H99.8572V37.52C99.8572 38.0133 99.8705 38.4867 99.8972 38.94C99.9239 39.3 99.9839 39.56 100.077 39.72C100.171 39.88 100.331 39.98 100.557 40.02C100.757 40.0733 101.077 40.1 101.517 40.1H101.977C102.084 40.1 102.204 40.0867 102.337 40.06V43.14C102.244 43.1533 102.111 43.16 101.937 43.16H101.517ZM103.177 29.24H107.177V36.72C107.177 38.0267 107.151 39.0133 107.097 39.68C107.044 40.3467 106.897 40.9067 106.657 41.36C106.391 41.88 105.984 42.28 105.437 42.56C104.891 42.84 104.137 43.02 103.177 43.1V29.24ZM109.726 29.24H113.726V43H109.726V29.24ZM116.327 29.24H120.327V43H116.327V29.24ZM121.167 39.94H121.987C122.361 39.94 122.641 39.9333 122.827 39.92C123.027 39.8933 123.174 39.84 123.267 39.76C123.361 39.68 123.421 39.5667 123.447 39.42C123.487 39.2733 123.507 39.06 123.507 38.78C123.507 38.4867 123.487 38.2667 123.447 38.12C123.421 37.9733 123.361 37.86 123.267 37.78C123.107 37.6467 122.681 37.58 121.987 37.58H121.167V34.52H121.867C122.241 34.52 122.521 34.5133 122.707 34.5C122.907 34.4733 123.054 34.42 123.147 34.34C123.241 34.26 123.301 34.1533 123.327 34.02C123.367 33.8733 123.387 33.6733 123.387 33.42C123.387 33.1533 123.367 32.9533 123.327 32.82C123.301 32.6733 123.241 32.56 123.147 32.48C123.054 32.4 122.907 32.3533 122.707 32.34C122.521 32.3133 122.241 32.3 121.867 32.3H121.167V29.24H123.447C126.127 29.24 127.467 30.3933 127.467 32.7C127.467 33.6733 127.274 34.4067 126.887 34.9C126.514 35.3933 125.914 35.74 125.087 35.94V36.02C125.954 36.22 126.574 36.5333 126.947 36.96C127.374 37.4667 127.587 38.2533 127.587 39.32C127.587 40.5467 127.261 41.4667 126.607 42.08C125.954 42.6933 124.907 43 123.467 43H121.167V39.94ZM135.326 43.16C133.926 43.16 132.846 43.0467 132.086 42.82C131.326 42.5933 130.766 42.2267 130.406 41.72C130.072 41.2533 129.866 40.66 129.786 39.94C129.706 39.22 129.666 38.1467 129.666 36.72V29.24H133.666V37.52C133.666 38.0133 133.679 38.4867 133.706 38.94C133.732 39.3 133.792 39.56 133.886 39.72C133.979 39.88 134.139 39.98 134.366 40.02C134.566 40.0733 134.886 40.1 135.326 40.1H135.786C135.892 40.1 136.012 40.0867 136.146 40.06V43.14C136.052 43.1533 135.919 43.16 135.746 43.16H135.326ZM136.986 29.24H140.986V36.72C140.986 38.0267 140.959 39.0133 140.906 39.68C140.852 40.3467 140.706 40.9067 140.466 41.36C140.199 41.88 139.792 42.28 139.246 42.56C138.699 42.84 137.946 43.02 136.986 43.1V29.24ZM143.254 29.24H153.794V32.08L153.634 32.3H143.254V29.24ZM143.034 40.06L148.194 33.1H153.034L145.674 43H143.034V40.06ZM148.994 39.94H153.794V43H146.714L148.994 39.94Z" fill="white"/>
</svg>
